# xmcd CD database file
#
# Track frame offsets:
#	150
#	12268
#	21780
#	34130
#	40825
#	51875
#	65583
#	77208
#	88735
#	99408
#	116448
#	124633
#
# Disc length: 1799 seconds
#
# Revision: 0
# Processed by: cddbd v1.4b42PL0 Copyright (c) Steve Scherf et al.
# Submitted via: CD2WAV32(EN) R3.18
#
DISCID=9407050c
DTITLE=Ike And Tina Turner - It's Gonna Work Out Fine
DYEAR=1900
DGENRE=
TTITLE0=Gonna Find Me A Substitute
TTITLE1=Mojo Queen
TTITLE2=Kinda' Strange
TTITLE3=Why Should I
TTITLE4=Tinaloo
TTITLE5=It's Gonna Work Out Fine
TTITLE6=I'm Gonna Cut You Loose
TTITLE7=Poor Fool
TTITLE8=I'm Fallin In Love
TTITLE9=Foolish
TTITLE10=This Man's Crazy
TTITLE11=Good Good Lovin
EXTD=
EXTT0=
EXTT1=
EXTT2=
EXTT3=
EXTT4=
EXTT5=
EXTT6=
EXTT7=
EXTT8=
EXTT9=
EXTT10=
EXTT11=
PLAYORDER=
